<?xml version="1.0" encoding="UTF-8"?>
<svg version="1.1" xmlns="http://www.w3.org/2000/svg" fill="none" width="1760" height="1173">
<path d="M0 0 C580.8 0 1161.6 0 1760 0 C1760 387.09 1760 774.18 1760 1173 C1179.2 1173 598.4 1173 0 1173 C0 785.91 0 398.82 0 0 Z " transform="translate(0,0)"/>
<path d="M0 0 C311.52 0 623.04 0 944 0 C944 57 944 57 941 64 C937.24884657 67.12528351 933.58357784 67.58977893 928.81176758 68.16333008 C928.10487289 68.25166611 927.39797821 68.34000214 926.66966248 68.43101501 C925.13550762 68.62114257 923.60067459 68.80585946 922.06528664 68.98575783 C919.59675557 69.27513176 917.1303544 69.57892113 914.66398621 69.88615417 C909.38171315 70.54133888 904.09722653 71.17746241 898.8125 71.8125 C873.72089524 74.83672245 848.82923049 78.25329355 824 83 C822.92279694 83.20571625 821.84559387 83.4114325 820.73574829 83.62338257 C814.39653314 84.84449263 808.0706491 86.12397468 801.75 87.4375 C800.82986115 87.62764679 799.90972229 87.81779358 798.96170044 88.01370239 C711.48945738 106.11053644 618.42980165 133.52579683 520.71337891 231.93603516 C509.18418306 249.77894766 501.35978047 268.22811289 497 289 C496.77054688 290.06992187 496.54109375 291.13984375 496.3046875 292.2421875 C489.9731615 326.57511016 501.11014473 362.29911213 520.40283203 390.67749023 C525.75338669 398.33901465 531.5632534 405.22388187 538 412 C539.13138066 413.32792341 540.2568513 414.66091589 541.375 416 C550.037314 425.91421019 560.51912412 434.11099859 571 442 C571.67272949 442.50789063 572.34545898 443.01578125 573.03857422 443.5390625 C590.7530899 456.83006434 609.55456198 468.06466491 629.09423828 478.45043945 C631.23289932 479.5909269 633.36587859 480.74208476 635.49560547 481.89916992 C643.9776181 486.49665332 652.56917283 490.7366205 661.375 494.6875 C662.34398727 495.12530792 662.34398727 495.12530792 663.33255005 495.57196045 C675.44235098 501.03219386 687.73398672 505.98282451 700.13623047 510.73706055 C717.34146664 517.34146664 717.34146664 517.34146664 723 523 C723 531.25 723 539.5 723 548 C466.59 548 210.18 548 -54 548 C-54 525 -54 525 -48 518 C-45.72436523 516.74975586 -45.72436523 516.74975586 -43.55859375 516.21484375 C-42.7399585 515.99812012 -41.92132324 515.78139648 -41.07788086 515.55810547 C-40.20655518 515.35330566 -39.33522949 515.14850586 -38.4375 514.9375 C-36.53117034 514.43910669 -34.62492235 513.94040088 -32.71875 513.44140625 C-31.27435547 513.07813232 -31.27435547 513.07813232 -29.80078125 512.70751953 C13.90738385 501.66617866 57.93668055 485.88508455 97.91259766 465.08056641 C100.28151743 463.85426946 102.66218588 462.65231423 105.04296875 461.44921875 C116.50214088 455.6114484 127.39443905 449.27276677 138 442 C138.61955566 441.5786377 139.23911133 441.15727539 139.87744141 440.72314453 C147.64515568 435.41406627 154.95242229 429.70349211 162.0625 423.54296875 C164.07618328 421.79974028 166.09844358 420.09713894 168.16015625 418.4140625 C170.49514625 416.42916041 172.46936568 414.51883118 174.4375 412.1875 C177.88117092 408.12727665 177.88117092 408.12727665 179.6484375 406.234375 C201.33186073 382.82034992 209.33783715 353.16608997 208.17285156 321.88769531 C207.78479768 315.40478389 206.56667228 309.30089595 205 303 C204.75636719 301.82308594 204.51273438 300.64617187 204.26171875 299.43359375 C199.30610068 277.66175512 187.25116553 258.97328511 172 243 C171.46375 242.40058594 170.9275 241.80117188 170.375 241.18359375 C142.17467352 210.79774197 89.39145196 196.20657264 49.23681641 194.10888672 C45.0059396 193.96655974 40.77570499 193.90686421 36.54296875 193.84765625 C35.69300827 193.83345642 34.84304779 193.81925659 33.96733093 193.80462646 C29.65112547 193.73269097 25.33806983 193.68615788 21.02124023 193.69189453 C19.41258758 193.67440647 17.80394405 193.65605084 16.1953125 193.63671875 C15.09022591 193.65219505 15.09022591 193.65219505 13.96281433 193.66798401 C8.19144463 193.55779766 5.8640986 192.00816282 2 188 C-26.02697114 131.94605773 0 62.67021267 0 0 Z " fill="#48576E" transform="translate(597,250)"/>
<path d="M0 0 C1.03604423 -0.00247617 1.03604423 -0.00247617 2.09301865 -0.00500236 C4.42924023 -0.00934848 6.76539943 -0.00651945 9.1016227 -0.00377727 C10.79198024 -0.0054259 12.4823374 -0.00751171 14.17269391 -0.00999737 C18.85208649 -0.0155867 23.53146085 -0.01488748 28.21085571 -0.01321978 C33.28868279 -0.01249123 38.36650463 -0.0175056 43.4443295 -0.0217948 C53.53089925 -0.02939093 63.6174637 -0.03156867 73.70403601 -0.03212385 C85.77911091 -0.03303589 97.85418088 -0.03969862 109.92925367 -0.04647068 C138.42360181 -0.06216695 166.91794908 -0.06822082 195.4123005 -0.0728777 C209.90445259 -0.07525962 224.39660422 -0.07896281 238.88875596 -0.0829148 C285.35662987 -0.09557962 331.82450376 -0.10636396 378.29237938 -0.10975526 C380.51384002 -0.1099175 382.73530067 -0.11008306 384.95676132 -0.11024964 C389.41205562 -0.11058345 393.86734993 -0.11091393 398.32264423 -0.1112442 C403.53889086 -0.11163111 408.75513749 -0.11202071 413.97138412 -0.11241527 C415.46432522 -0.11252769 416.95726632 -0.1126391 418.45020743 -0.11274952 C466.41278247 -0.11630004 514.37534254 -0.13138269 562.33791187 -0.15468726 C596.79648283 -0.17142358 631.25505096 -0.18690167 665.71362603 -0.19142222 C666.42193131 -0.19151571 667.13023659 -0.1916092 667.86000567 -0.19170551 C683.40729832 -0.19372434 698.95459093 -0.19488057 714.50188371 -0.1952341 C720.06467364 -0.19537028 725.62746356 -0.19557928 731.19025349 -0.19582735 C732.57418791 -0.19588891 733.95812234 -0.19594723 735.34205677 -0.1960023 C757.41417076 -0.19692294 779.48626915 -0.20690096 801.558378 -0.22145979 C824.40038085 -0.2364662 847.24236696 -0.24067439 870.08437489 -0.23236683 C883.26299145 -0.22789654 896.44154401 -0.23182685 909.62015222 -0.24760534 C918.41092243 -0.25730959 927.20164748 -0.25622098 935.99241721 -0.24616911 C941.00918681 -0.240744 946.02583295 -0.24017232 951.04259263 -0.25267783 C955.60056188 -0.26394553 960.15830625 -0.2615716 964.71626738 -0.24801075 C966.36059689 -0.24556197 968.00494333 -0.2482123 969.64925424 -0.25640723 C971.87304648 -0.2667673 974.09603687 -0.25878885 976.31979942 -0.24609566 C977.55371485 -0.24633986 978.78763027 -0.24658406 980.05893707 -0.24683566 C984.53120182 0.27227141 987.15005559 1.81779127 990.07646286 5.19446874 C991.84701642 9.4908085 991.67887935 13.45546612 991.62582505 18.0585587 C991.62626313 19.05415303 991.62670121 20.04974736 991.62715256 21.07551122 C991.62506574 24.36001886 991.60173916 27.64401348 991.57821763 30.92843175 C991.57262131 33.20814795 991.56835138 35.48786776 991.56535447 37.76758885 C991.55390858 43.76326032 991.52444332 49.75871324 991.49124253 55.75429845 C991.4605363 61.87416177 991.44684793 67.99406045 991.43173325 74.11397862 C991.39957361 86.11863186 991.34838012 98.12312299 991.28524888 110.1276505 C965.18024855 110.36199248 939.0754075 110.5379551 912.96956456 110.64577222 C900.84616196 110.69718032 888.72341559 110.7671781 876.60043442 110.88204503 C866.02521719 110.98219831 855.45047554 111.04634574 844.87479717 111.06853545 C839.28271602 111.0814923 833.69199459 111.11160662 828.10035241 111.18495107 C784.4487969 111.73569306 784.4487969 111.73569306 769.17115033 101.30318379 C766.00270321 99.32820516 762.56217956 98.16736712 759.03524888 96.99093175 C758.35921427 96.76210773 757.68317967 96.53328372 756.98665917 96.29752564 C755.09097059 95.66277317 753.18904609 95.0501224 751.28524888 94.4401505 C750.59446244 94.21430272 749.903676 93.98845494 749.19195664 93.75576329 C726.33877436 86.29621747 702.92233641 81.38720827 679.28524888 77.1276505 C678.43414536 76.97312413 677.58304184 76.81859776 676.70614731 76.65938878 C672.59708512 75.91540583 668.48677724 75.17942572 664.36923325 74.48360753 C662.86907417 74.22737136 661.37053946 73.96155853 659.8731395 73.68966222 C649.81417898 71.91674381 639.67859539 70.7924268 629.53524888 69.6276505 C628.57450455 69.51682134 627.61376023 69.40599217 626.62390244 69.29180455 C612.19541972 67.632276 597.78040966 66.07719379 583.28524888 65.1276505 C581.39564438 65.0024503 581.39564438 65.0024503 579.46786606 64.87472081 C575.17850076 64.59370325 570.88829488 64.32744849 566.59774888 64.0651505 C565.31118393 63.98563146 564.02461899 63.90611241 562.69906723 63.8241837 C538.80553848 62.43606256 514.90185881 61.92267683 490.9705478 61.93876958 C488.86952484 61.94017779 486.76850491 61.940065 484.66748154 61.93996739 C459.17119578 61.94874715 433.73997613 62.62259317 408.28524888 64.1276505 C407.54655564 64.17103551 406.8078624 64.21442052 406.04678452 64.25912023 C391.96406892 65.09546314 377.92789804 66.24772133 363.91073716 67.83907628 C360.87983327 68.17221078 357.84663723 68.47680981 354.81259263 68.77999425 C338.87608527 70.38978745 323.07840818 72.45506278 307.28524888 75.1276505 C306.01020493 75.34292394 304.73516098 75.55819737 303.42147934 75.77999425 C246.61393139 83.49572027 246.61393139 83.49572027 195.56559956 106.4139235 C187.62989698 112.10994853 177.84007919 110.78667336 168.53695786 110.69527745 C166.52580405 110.69386583 164.51464766 110.69466119 162.50349534 110.69748998 C157.06182554 110.69892106 151.62070991 110.66958074 146.17916858 110.63462019 C140.48572141 110.60330556 134.7922607 110.60042191 129.0987407 110.59449315 C118.32538102 110.57896976 107.55227586 110.53796146 96.77902812 110.4877457 C84.51064867 110.43180557 72.24225688 110.40435396 59.97378159 110.37926853 C34.74412973 110.32704443 9.51470358 110.23913123 -15.71475112 110.1276505 C-15.78423794 97.04527372 -15.83755582 83.96294079 -15.87018764 70.88041711 C-15.88584866 64.80577954 -15.90709518 58.73126817 -15.94106948 52.65670323 C-15.97364694 46.79526266 -15.99160085 40.93394352 -15.99938285 35.0724194 C-16.00492923 32.83528982 -16.01575981 30.59816693 -16.03194129 28.36108899 C-16.05369376 25.22950007 -16.05671891 22.09841405 -16.0553273 18.96676183 C-16.06611312 18.04031362 -16.07689895 17.1138654 -16.08801162 16.159343 C-16.05956264 10.24945767 -15.12885769 6.94410816 -11.21475112 2.3776505 C-7.8535312 -0.42336611 -4.16075063 0.00173757 0 0 Z " fill="#49586F" transform="translate(443.714751124382,874.8723495006561)"/>
<path d="M0 0 C1.1861673 -0.00173077 1.1861673 -0.00173077 2.39629757 -0.0034965 C5.07429476 -0.00616574 7.75223309 -0.00163847 10.43022728 0.00279331 C12.3582353 0.00235767 14.28624327 0.0014829 16.21425092 0.00020415 C21.53427469 -0.00204225 26.8542785 0.00198245 32.17429972 0.00698221 C37.90301611 0.01128445 43.63173129 0.00984045 49.36044884 0.00907993 C59.29315141 0.00855455 69.22584743 0.01170281 79.15854836 0.01731777 C93.5197217 0.02543089 107.88089187 0.0280478 122.24206726 0.02930576 C145.53984565 0.03149658 168.83762047 0.0381489 192.13539696 0.04760838 C214.77244105 0.05678898 237.4094842 0.06385757 260.04652977 0.06811619 C261.46939635 0.06838683 262.89226294 0.06865753 264.31512952 0.0689283 C275.33094118 0.07101379 286.34675287 0.07296458 297.36256456 0.07488286 C351.39524367 0.08432344 405.42791404 0.10444011 459.46059227 0.12304783 C459.46059227 69.09304783 459.46059227 138.06304783 459.46059227 209.12304783 C294.60987877 209.12304783 294.60987877 209.12304783 227.46059227 188.12304783 C226.5837075 187.85266697 225.70682274 187.58228611 224.80336571 187.30371189 C193.2573026 177.50776603 161.84442866 164.06229187 133.46059227 147.12304783 C132.6460659 146.63900486 131.83153954 146.15496189 130.99233055 145.65625095 C107.55364913 131.64164257 85.35897159 115.70280039 64.46059227 98.12304783 C63.66322655 97.45305759 63.66322655 97.45305759 62.84975243 96.7695322 C50.05903197 85.99456222 37.92857456 74.67832297 26.08559227 62.87304783 C25.61105614 62.40119053 25.13652 61.92933323 24.64760399 61.44317722 C19.57758396 56.39488962 14.62884518 51.30356998 9.97182274 45.87060642 C7.7986345 43.35757227 5.49736229 40.97007391 3.21059227 38.56054783 C-14.97050953 19.07301955 -14.97050953 19.07301955 -14.89878273 9.22851658 C-14.26358959 5.5071133 -12.19961757 3.71991934 -9.53940773 1.12304783 C-6.49723701 -0.39803753 -3.33701438 -0.01178316 0 0 Z " fill="#48576E" transform="translate(127.53940773010254,218.87695217132568)"/>
<path d="M0 0 C256.74 0 513.48 0 778 0 C778 18.48 778 36.96 778 56 C521.26 56 264.52 56 0 56 C0 37.52 0 19.04 0 0 Z " fill="#49586F" transform="translate(543,809)"/>
<path d="M0 0 C0.6552669 -0.00177501 1.3105338 -0.00355002 1.98565727 -0.00537882 C4.20714812 -0.01015385 6.428575 -0.0077374 8.650069 -0.00541991 C10.25539255 -0.00737129 11.86071562 -0.00975953 13.46603793 -0.01254788 C17.91399856 -0.01897782 22.36194121 -0.01910713 26.80990561 -0.01827047 C31.63513436 -0.01843938 36.46035655 -0.02433887 41.28558207 -0.02951133 C50.87224631 -0.0388587 60.45890593 -0.04276296 70.04557416 -0.0450303 C81.52156609 -0.0479868 92.99755185 -0.05668089 104.47354056 -0.06544458 C132.21453371 -0.08631186 159.95552794 -0.09676204 187.69652711 -0.10557419 C200.81207735 -0.10977711 213.92762712 -0.11499955 227.04317697 -0.12025872 C271.20922746 -0.13786965 315.37527811 -0.15292386 359.54133158 -0.16022895 C363.06290193 -0.16081293 366.58447227 -0.1614102 370.10604261 -0.16200657 C370.80462074 -0.16212469 371.50319886 -0.16224281 372.22294602 -0.16236451 C379.30069843 -0.16356192 386.37845083 -0.16477067 393.45620323 -0.16599704 C394.87532952 -0.16624227 396.29445581 -0.16648613 397.7135821 -0.16672861 C443.29938979 -0.17451983 488.88517175 -0.19690617 534.47096819 -0.22940504 C567.22024009 -0.25274467 599.96950688 -0.27429955 632.71878695 -0.28141135 C633.39202507 -0.28155837 634.06526319 -0.28170539 634.75890246 -0.28185687 C650.19979703 -0.28518427 665.64069147 -0.2871664 681.08158636 -0.28822315 C686.36443512 -0.28864071 691.64728388 -0.28912028 696.93013263 -0.28964633 C698.23097969 -0.28976952 699.53182675 -0.28989271 700.87209343 -0.29001964 C721.84226859 -0.29235553 742.81241367 -0.30803711 763.7825781 -0.32848817 C784.84458791 -0.34870359 805.90656143 -0.35424382 826.96857914 -0.34471754 C839.49379733 -0.33948595 852.01889502 -0.34545797 864.54409596 -0.36725221 C872.90063886 -0.3806986 881.25709825 -0.37973819 889.61364186 -0.36685025 C894.38163028 -0.35991238 899.14938735 -0.35942368 903.91735569 -0.37641034 C908.25079954 -0.39172389 912.58382437 -0.38879005 916.91725526 -0.37100006 C918.47916507 -0.36783762 920.04110621 -0.37145004 921.60298019 -0.38249181 C923.71855992 -0.39647949 925.83265103 -0.38590626 927.94817829 -0.36914349 C929.12101707 -0.36954367 930.29385584 -0.36994385 931.50223519 -0.37035616 C935.48529086 0.24659936 937.6258023 1.58341217 940.72478747 4.12880117 C946.39733344 15.47389311 942.72478747 29.44460277 942.72478747 42.12880117 C627.24478747 42.12880117 311.76478747 42.12880117 -13.27521253 42.12880117 C-13.27521253 7.12880117 -13.27521253 7.12880117 -8.27521253 1.12880117 C-5.46517121 -0.27621949 -3.14514482 0.00198214 0 0 Z " fill="#48576E" transform="translate(611.2752125263214,197.87119883298874)"/>
<path d="M0 0 C3.3 0 6.6 0 10 0 C11.57102489 3.80677259 13.1374843 7.61538764 14.69970703 11.42578125 C15.23197786 12.72219683 15.76550105 14.01809894 16.30029297 15.31347656 C17.06805964 17.17377949 17.83097659 19.03608163 18.59375 20.8984375 C19.05458984 22.01911621 19.51542969 23.13979492 19.99023438 24.29443359 C21 27 21 27 21 29 C21.66 29 22.32 29 23 29 C23.12310547 28.28287842 23.24621094 27.56575684 23.37304688 26.8269043 C24.00741162 23.96658133 24.91155444 21.47422796 26.03125 18.76953125 C26.42957031 17.80208984 26.82789063 16.83464844 27.23828125 15.83789062 C27.65464844 14.83951172 28.07101562 13.84113281 28.5 12.8125 C28.91636719 11.80251953 29.33273437 10.79253906 29.76171875 9.75195312 C32.80492881 2.39014237 32.80492881 2.39014237 34 0 C37.3 0 40.6 0 44 0 C44 13.53 44 27.06 44 41 C41.69 41 39.38 41 37 41 C36.67 31.43 36.34 21.86 36 12 C32.04 21.57 28.08 31.14 24 41 C22.35 40.67 20.7 40.34 19 40 C17.6726199 37.71974853 16.77633659 35.78698838 15.88671875 33.33984375 C15.62744095 32.67537735 15.36816315 32.01091095 15.10102844 31.3263092 C14.27761501 29.2034272 13.48244043 27.07118638 12.6875 24.9375 C12.13398906 23.49604167 11.57867148 22.05527569 11.02148438 20.61523438 C9.65632239 17.08534458 8.32985545 13.54416022 7 10 C6.67 19.9 6.34 29.8 6 40 C4.02 40 2.04 40 0 40 C0 26.8 0 13.6 0 0 Z " fill="#515F75" transform="translate(1497,944)"/>
<path d="M0 0 C10.89 0 21.78 0 33 0 C33 1.98 33 3.96 33 6 C28.71 6 24.42 6 20 6 C20 17.55 20 29.1 20 41 C18.02 41 16.04 41 14 41 C14 29.45 14 17.9 14 6 C9.38 6 4.76 6 0 6 C0 4.02 0 2.04 0 0 Z " fill="#4F5E74" transform="translate(1456,944)"/>
</svg>
